<svg class="animated" id="freepik_stories-drinking-coconut" xmlns="http://www.w3.org/2000/svg" viewBox="0 0 500 500" version="1.1" xmlns:xlink="http://www.w3.org/1999/xlink" xmlns:svgjs="http://svgjs.com/svgjs"><style>svg#freepik_stories-drinking-coconut:not(.animated) .animable {opacity: 0;}svg#freepik_stories-drinking-coconut.animated #freepik--Shadow--inject-44 {animation: 1s 1 forwards cubic-bezier(.36,-0.01,.5,1.38) slideUp;animation-delay: 0s;}svg#freepik_stories-drinking-coconut.animated #freepik--Trees--inject-44 {animation: 1s 1 forwards cubic-bezier(.36,-0.01,.5,1.38) slideDown;animation-delay: 0s;}svg#freepik_stories-drinking-coconut.animated #freepik--Sun--inject-44 {animation: 1s 1 forwards cubic-bezier(.36,-0.01,.5,1.38) slideDown;animation-delay: 0s;}svg#freepik_stories-drinking-coconut.animated #freepik--Character--inject-44 {animation: 1s 1 forwards cubic-bezier(.36,-0.01,.5,1.38) slideUp;animation-delay: 0s;}svg#freepik_stories-drinking-coconut.animated #freepik--Plant--inject-44 {animation: 1s 1 forwards cubic-bezier(.36,-0.01,.5,1.38) slideUp;animation-delay: 0s;}            @keyframes slideUp {                0% {                    opacity: 0;                    transform: translateY(30px);                }                100% {                    opacity: 1;                    transform: inherit;                }            }                    @keyframes slideDown {                0% {                    opacity: 0;                    transform: translateY(-30px);                }                100% {                    opacity: 1;                    transform: translateY(0);                }            }        </style><g id="freepik--background-simple--inject-44" class="animable" style="transform-origin: 256.89px 234.658px;"><g id="eljmwdkuzbrkj" class="animable" style="transform-origin: 256.89px 234.658px;"><path d="M191.11,147.07c-21.56,2.27-42.36,7.09-60.8,14.65-21.74,8.92-43.95,22.8-37.39,40.97,12.11,33.54,70.21,34.15,58.61,56.7-13.14,25.54-4.33,55.5,54.63,63.84,111.98,15.83,247.35-76.77,209.33-127.65-23.67-31.68-109.88-60.53-224.38-48.5Z" style="fill: rgb(64, 123, 255); transform-origin: 256.89px 234.658px;" id="elut639mpghu" class="animable"></path><g id="elf0nbbq1fmps"><path d="M191.11,147.07c-21.56,2.27-42.36,7.09-60.8,14.65-21.74,8.92-43.95,22.8-37.39,40.97,12.11,33.54,70.21,34.15,58.61,56.7-13.14,25.54-4.33,55.5,54.63,63.84,111.98,15.83,247.35-76.77,209.33-127.65-23.67-31.68-109.88-60.53-224.38-48.5Z" style="fill: rgb(255, 255, 255); opacity: 0.9; transform-origin: 256.89px 234.658px;" class="animable"></path></g></g></g><g id="freepik--Shadow--inject-44" class="animable" style="transform-origin: 250px 454.53px;"><path d="M458.88,454.53c0,3.39-93.52,6.13-208.88,6.13s-208.88-2.75-208.88-6.13,93.52-6.13,208.88-6.13,208.88,2.75,208.88,6.13Z" style="fill: rgb(245, 245, 245); transform-origin: 250px 454.53px;" id="elbxho6elo8to" class="animable"></path></g><g id="freepik--Trees--inject-44" class="animable" style="transform-origin: 350.08px 219.055px;"><g id="el8uqnig9y8r4" class="animable" style="transform-origin: 405.08px 219.055px;"><path d="M382.04,82.15c-2.22,.44-4.39,1.05-6.51,1.85,11.91,18.16,22.12,31.77,31.08,41.48,15.75-19.82-7-46.76-38.96-53.74,2.06,3.26,4.07,6.41,6.04,9.44,2.82-.21,5.65,.12,8.35,.98Z" style="fill: rgb(64, 123, 255); transform-origin: 389.689px 98.61px;" id="el6dmp42rv847" class="animable"></path><g id="elhlfsegj1hr4"><path d="M382.04,82.15c-2.22,.44-4.39,1.05-6.51,1.85,11.91,18.16,22.12,31.77,31.08,41.48,15.75-19.82-7-46.76-38.96-53.74,2.06,3.26,4.07,6.41,6.04,9.44,2.82-.21,5.65,.12,8.35,.98Z" style="fill: rgb(255, 255, 255); opacity: 0.3; transform-origin: 389.689px 98.61px;" class="animable"></path></g><g id="eluylwd45w4j" class="animable" style="transform-origin: 448.08px 120.895px;"><path d="M469.25,125.49c.89,2.7,1.56,5.46,2.01,8.26-27.25-1.77-48.49-4.48-64.65-8.31,11.91-29.51,55.49-21.35,82.94,9.29-4.86-.22-9.54-.47-14.07-.75-1.52-3.2-3.64-6.08-6.24-8.49Z" style="fill: rgb(64, 123, 255); transform-origin: 448.08px 120.895px;" id="el13myo4j5i1bq" class="animable"></path><g id="elpy7p1lo3hm"><path d="M469.25,125.49c.89,2.7,1.56,5.46,2.01,8.26-27.25-1.77-48.49-4.48-64.65-8.31,11.91-29.51,55.49-21.35,82.94,9.29-4.86-.22-9.54-.47-14.07-.75-1.52-3.2-3.64-6.08-6.24-8.49Z" style="fill: rgb(255, 255, 255); opacity: 0.3; transform-origin: 448.08px 120.895px;" class="animable"></path></g></g><path d="M406.56,125.48c-73.11,65.07-69.57,214.54-68.34,240.89l26.66-.24c0-.1,0-.2-.01-.3-2.19-27.15-10.81-169.36,41.69-240.35Z" style="fill: rgb(159, 91, 83); transform-origin: 372.168px 245.925px;" id="elrhf7ypwdkep" class="animable"></path><g id="elk6yw80ho6gm"><path d="M339.74,299.18c-.12,1.4-.23,2.78-.33,4.16,7.91-.48,15.85-.31,23.74,.51,0-1.38,.06-2.78,.09-4.16-7.8-.8-15.66-.97-23.49-.51Z" style="isolation: isolate; opacity: 0.2; transform-origin: 351.325px 301.389px;" class="animable"></path></g><g id="eljtk1ryclaxm"><path d="M342.18,276.33c-.17,1.39-.35,2.76-.52,4.16,7.44-.19,14.88,.22,22.25,1.22,.07-1.39,.15-2.78,.23-4.16-7.28-.98-14.62-1.39-21.96-1.22Z" style="isolation: isolate; opacity: 0.2; transform-origin: 352.9px 279.001px;" class="animable"></path></g><g id="elgmj3zbmd63t"><path d="M345.03,257.52c6.86,.13,13.7,.78,20.46,1.95l.4-4.16c-6.65-1.12-13.38-1.76-20.13-1.9-.25,1.37-.5,2.74-.73,4.12Z" style="isolation: isolate; opacity: 0.2; transform-origin: 355.46px 256.44px;" class="animable"></path></g><g id="el9z6vsbz8uxg"><path d="M349.67,234.66c6.17,.48,12.3,1.36,18.35,2.65,.18-1.37,.38-2.75,.58-4.16-5.92-1.24-11.92-2.11-17.95-2.58-.33,1.38-.67,2.74-.98,4.08Z" style="isolation: isolate; opacity: 0.2; transform-origin: 359.135px 233.94px;" class="animable"></path></g><g id="elpxyoi9socip"><path d="M355.75,212.16c5.33,.79,10.62,1.86,15.84,3.23,.26-1.36,.52-2.74,.83-4.1-5.07-1.31-10.2-2.36-15.38-3.13-.45,1.33-.88,2.66-1.29,4Z" style="isolation: isolate; opacity: 0.2; transform-origin: 364.085px 211.775px;" class="animable"></path></g><g id="elpqjw0x3gdc"><path d="M363.47,190.35c4.31,.98,8.72,2.19,12.92,3.54,.35-1.35,.71-2.7,1.07-4.04-4.02-1.28-8.23-2.44-12.39-3.39-.54,1.29-1.07,2.58-1.6,3.89Z" style="isolation: isolate; opacity: 0.2; transform-origin: 370.465px 190.175px;" class="animable"></path></g><g id="elvc1cnc77nci"><path d="M375.02,165.96c-.69,1.24-1.36,2.49-2.03,3.73,3.33,1.06,6.53,2.21,9.61,3.43,.45-1.32,.91-2.64,1.39-3.94-2.88-1.13-5.9-2.22-8.97-3.22Z" style="isolation: isolate; opacity: 0.2; transform-origin: 378.49px 169.54px;" class="animable"></path></g><path d="M407.33,173.63c1.17,.69,2.39,1.28,3.66,1.77-1.69,4.7-3.96,9.17-6.78,13.3-2.27,.86-4.63,1.47-7.03,1.81,1.5,.61,3.05,1.08,4.63,1.39-3.35,4.21-7.41,7.81-12,10.63-14.74-28.95,4.66-64.58,16.8-77.03,8.92,11.22,10.71,30.59,5.08,47.86-1.44,.22-2.9,.31-4.36,.27Z" style="fill: rgb(64, 123, 255); transform-origin: 399.709px 164.015px;" id="eltq8j53kv95p" class="animable"></path><g id="elp1j6y2egzh"><path d="M407.33,173.63c1.17,.69,2.39,1.28,3.66,1.77-1.69,4.7-3.96,9.17-6.78,13.3-2.27,.86-4.63,1.47-7.03,1.81,1.5,.61,3.05,1.08,4.63,1.39-3.35,4.21-7.41,7.81-12,10.63-14.74-28.95,4.66-64.58,16.8-77.03,8.92,11.22,10.71,30.59,5.08,47.86-1.44,.22-2.9,.31-4.36,.27Z" style="fill: rgb(255, 255, 255); opacity: 0.3; transform-origin: 399.709px 164.015px;" class="animable"></path></g><path d="M406.61,125.48c-24.11,2.62-54.53,2.36-86-7.62,34.12-25.41,77.25-19.82,86,7.62Z" style="fill: rgb(64, 123, 255); transform-origin: 363.61px 114.216px;" id="el2iob8ayknsv" class="animable"></path><g id="elq41e3nvwpdk"><path d="M406.61,125.48c-24.11,2.62-54.53,2.36-86-7.62,34.12-25.41,77.25-19.82,86,7.62Z" style="fill: rgb(255, 255, 255); opacity: 0.3; transform-origin: 363.61px 114.216px;" class="animable"></path></g><g id="el9erccvo5nq5"><g style="opacity: 0.3; transform-origin: 417.31px 145.205px;" class="animable"><path d="M424.58,160c-3.66-11.67-5.42-17.15-14.54-29.59,.56,.56,3.08,7.74,3.51,10-.09,.11,6.53,12.42,7.95,14.63,1.44,2.24,3.08,4.96,3.08,4.96Z" id="elpr1bj9zvc8" class="animable" style="transform-origin: 417.31px 145.205px;"></path></g></g><path d="M406.61,125.48c10.93,25.44,28.27,55.51,55.83,81.17,6.11-48.16-23.66-87.87-55.83-81.17Z" style="fill: rgb(64, 123, 255); transform-origin: 434.926px 165.695px;" id="elbiyqakuqtl" class="animable"></path><g id="elvwqac1qlws"><path d="M406.61,125.48c10.93,25.44,28.27,55.51,55.83,81.17,6.11-48.16-23.66-87.87-55.83-81.17Z" style="fill: rgb(255, 255, 255); opacity: 0.3; transform-origin: 434.926px 165.695px;" class="animable"></path></g><g id="el4dupvfmow5d"><path d="M432.61,130.09s-14.62-7.75-24.33-4.88c0,0,3.75-2.78,12.17-1.48,5.47,.84,12.17,6.36,12.17,6.36Z" style="opacity: 0.3; transform-origin: 420.45px 126.737px;" class="animable"></path></g><g id="elr9pg8ht8tp"><g style="opacity: 0.3; transform-origin: 396.535px 113.07px;" class="animable"><path d="M398.13,111.58c-1.89-2.45-4.17-5.29-7.26-5.42l1.18,1.59c4.44,3.34,7.53,7.33,10.15,12.23-.73-2.64-2.18-5.94-4.07-8.4Z" id="elc5u23oyxdpt" class="animable" style="transform-origin: 396.535px 113.07px;"></path></g></g><g id="el784052ivpnm"><g style="opacity: 0.3; transform-origin: 380.475px 125.253px;" class="animable"><path d="M369.72,126.74l12.92,.15c5.36-1.25,8.6-2.49,8.6-2.49-5.97-2.67-21.53,2.34-21.53,2.34Z" id="elf4ue84jwd2s" class="animable" style="transform-origin: 380.475px 125.253px;"></path></g></g><g id="elba9w2ixk8rn"><path d="M391.45,149.12l10.17-13.84s-6.74,13.91-11.92,18.12l1.75-4.28Z" style="opacity: 0.3; transform-origin: 395.66px 144.34px;" class="animable"></path></g><path d="M406.61,125.47c-6.9,17.33-33.32,51.86-68.1,50.06,1.66-12.69,8.31-23.94,17.38-32.64,2.15,3.41,5.57,7.32,10.25,8.07-2.46-3.92-4.05-8.31-4.67-12.89,13.97-10.84,31.57-16.1,45.13-12.6Z" style="fill: rgb(64, 123, 255); transform-origin: 372.56px 149.996px;" id="elmzos6annkx8" class="animable"></path><g id="elrfkv0dr5dyj"><path d="M406.61,125.47c-6.9,17.33-33.32,51.86-68.1,50.06,1.66-12.69,8.31-23.94,17.38-32.64,2.15,3.41,5.57,7.32,10.25,8.07-2.46-3.92-4.05-8.31-4.67-12.89,13.97-10.84,31.57-16.1,45.13-12.6Z" style="fill: rgb(255, 255, 255); opacity: 0.3; transform-origin: 372.56px 149.996px;" class="animable"></path></g></g><g id="el3b5l9l6u3ba" class="animable" style="transform-origin: 268.6px 265.19px;"><path d="M267.59,200.91c50.19,44.67,47.76,147.28,46.91,165.37l-18.28,.08c0-.07-.02-.38-.01-.45,1.5-18.64,7.42-116.26-28.62-165Z" style="fill: rgb(205, 135, 123); transform-origin: 291.199px 283.635px;" id="el43uivcuqlco" class="animable"></path><g id="elhwpha2kww4u"><path d="M297.08,350.64c-.04,.97-.08,1.93-.13,2.85,5.95-.34,11.93-.18,17.85,.49v-2.85c-5.88-.66-11.81-.82-17.73-.49Z" style="isolation: isolate; opacity: 0.2; transform-origin: 305.875px 352.227px;" class="animable"></path></g><g id="elzyyrm0c3xi"><path d="M297.45,335.63c-.02,.96-.03,1.91-.03,2.85,5.71-.44,11.45-.41,17.15,.1-.03-.94-.07-1.89-.11-2.85-5.65-.5-11.34-.53-17-.1Z" style="isolation: isolate; opacity: 0.2; transform-origin: 305.995px 336.955px;" class="animable"></path></g><g id="elhdyr6r95qn6"><path d="M297.34,320.51c.02,.95,.06,1.91,.06,2.85,5.41-.56,10.86-.68,16.29-.35-.07-.95-.15-1.89-.23-2.85-5.38-.32-10.77-.2-16.13,.35Z" style="isolation: isolate; opacity: 0.2; transform-origin: 305.51px 321.672px;" class="animable"></path></g><g id="elxiksrsg52ls"><path d="M296.71,305.31c.06,.94,.11,1.9,.16,2.85,5.06-.69,10.17-.97,15.27-.84-.11-.96-.23-1.9-.35-2.85-5.04-.11-10.08,.17-15.08,.84Z" style="isolation: isolate; opacity: 0.2; transform-origin: 304.425px 306.303px;" class="animable"></path></g><g id="elxu3qte61zcj"><path d="M309.33,288.73c-4.63,.1-9.25,.54-13.82,1.31l.27,2.85c4.64-.8,9.34-1.24,14.05-1.34-.16-.94-.33-1.88-.5-2.83Z" style="isolation: isolate; opacity: 0.2; transform-origin: 302.67px 290.805px;" class="animable"></path></g><g id="elmzt66jjw1to"><path d="M305.98,273.06c-4.14,.32-8.26,.91-12.32,1.77,.14,.96,.27,1.91,.4,2.85,4.15-.88,8.36-1.49,12.6-1.82-.22-.92-.45-1.85-.67-2.8Z" style="isolation: isolate; opacity: 0.2; transform-origin: 300.16px 275.37px;" class="animable"></path></g><g id="elc66z4hja2q6"><path d="M301.59,257.67c-3.55,.53-7.08,1.24-10.56,2.15,.21,.94,.39,1.88,.57,2.81,3.58-.94,7.21-1.67,10.87-2.21-.28-.92-.58-1.83-.88-2.75Z" style="isolation: isolate; opacity: 0.2; transform-origin: 296.75px 260.15px;" class="animable"></path></g><g id="elkod0qfnbae"><path d="M296.08,242.77c-2.85,.65-5.74,1.45-8.5,2.33,.25,.92,.5,1.85,.74,2.77,2.88-.92,5.91-1.76,8.87-2.43-.37-.9-.73-1.79-1.1-2.67Z" style="isolation: isolate; opacity: 0.2; transform-origin: 292.385px 245.32px;" class="animable"></path></g><g id="elqw9pfyaowjm"><path d="M283.09,230.91c.33,.89,.64,1.8,.95,2.71,2.11-.83,4.31-1.63,6.6-2.35-.46-.85-.92-1.71-1.39-2.56-2.11,.68-4.18,1.43-6.16,2.21Z" style="isolation: isolate; opacity: 0.2; transform-origin: 286.865px 231.165px;" class="animable"></path></g><path d="M264.07,233.78c-3.86-11.86-2.64-25.15,3.49-32.86,8.33,8.55,21.65,33.01,11.53,52.88-3.15-1.94-5.93-4.41-8.24-7.3,1.09-.21,2.15-.53,3.18-.95-1.65-.24-3.27-.66-4.83-1.24-1.93-2.84-3.49-5.9-4.65-9.13,.87-.34,1.71-.74,2.51-1.22-1,.03-2-.03-3-.18Z" style="fill: rgb(64, 123, 255); transform-origin: 272.296px 227.36px;" id="elgi41wfg0wvh" class="animable"></path><path d="M229.23,256.63c18.92-17.61,30.82-38.26,38.32-55.72-22.08-4.61-42.52,22.66-38.32,55.72Z" style="fill: rgb(64, 123, 255); transform-origin: 248.114px 228.515px;" id="elzi9wqexkdz" class="animable"></path><path d="M220.27,206.75c-3.1,.19-6.32,.36-9.66,.51,18.85-21.03,48.76-26.64,56.94-6.38-11.09,2.63-25.67,4.49-44.38,5.71,.31-1.92,.77-3.82,1.38-5.67-1.79,1.65-3.24,3.63-4.29,5.83Z" style="fill: rgb(64, 123, 255); transform-origin: 239.08px 197.762px;" id="el8a02jdxof" class="animable"></path><path d="M298.54,209.56c-.43,3.15-1.52,6.16-3.21,8.85,3.21-.51,5.56-3.2,7.04-5.54,6.23,5.97,10.79,13.69,11.93,22.41-23.87,1.23-42.01-22.48-46.75-34.37,9.31-2.4,21.4,1.21,30.98,8.65Z" style="fill: rgb(64, 123, 255); transform-origin: 290.925px 217.749px;" id="el7evihl0wvd" class="animable"></path><path d="M326.59,195.68c-21.6,6.85-42.49,7.03-59.04,5.23,6-18.84,35.61-22.68,59.04-5.23Z" style="fill: rgb(64, 123, 255); transform-origin: 297.07px 193.176px;" id="elr5rusuwj3s" class="animable"></path><path d="M290.16,170.5c1.35-2.08,2.73-4.24,4.14-6.48-21.94,4.79-37.55,23.29-26.74,36.89,6.15-6.66,13.16-16.01,21.34-28.47-1.45-.54-2.95-.97-4.47-1.27,1.85-.59,3.79-.82,5.73-.67Z" style="fill: rgb(64, 123, 255); transform-origin: 279.173px 182.465px;" id="el2ymdml0u9h8" class="animable"></path><g id="elrgfnfvreof"><g style="opacity: 0.3; transform-origin: 260.205px 214.455px;" class="animable"><path d="M255.22,224.61c2.51-8.01,3.72-11.78,9.98-20.31-.39,.38-2.12,5.31-2.41,6.87,.06,.08-4.48,8.52-5.46,10.04-.99,1.54-2.12,3.4-2.12,3.4Z" id="el4jrsqs8ulqi" class="animable" style="transform-origin: 260.205px 214.455px;"></path></g></g><g id="elii5p4z3ejir"><path d="M249.71,204.08s10.04-5.32,16.7-3.35c0,0-2.57-1.91-8.35-1.02-3.76,.58-8.35,4.37-8.35,4.37Z" style="opacity: 0.3; transform-origin: 258.06px 201.777px;" class="animable"></path></g><g id="elv1ukagwzxsn"><g style="opacity: 0.3; transform-origin: 274.47px 192.395px;" class="animable"><path d="M273.38,191.37c1.3-1.68,2.86-3.63,4.98-3.72l-.81,1.09c-3.05,2.29-5.17,5.03-6.97,8.4,.5-1.82,1.49-4.08,2.79-5.76Z" id="elu83rmcvih2i" class="animable" style="transform-origin: 274.47px 192.395px;"></path></g></g><g id="elmjeis8p6ypn"><g style="opacity: 0.3; transform-origin: 285.5px 200.747px;" class="animable"><path d="M292.89,201.77l-8.87,.1c-3.68-.86-5.91-1.71-5.91-1.71,4.1-1.83,14.78,1.61,14.78,1.61Z" id="elz4rl21nvbmg" class="animable" style="transform-origin: 285.5px 200.747px;"></path></g></g><g id="el9yhnu92q5zq"><path d="M277.97,217.14l-6.98-9.5s4.63,9.55,8.18,12.44l-1.2-2.94Z" style="opacity: 0.3; transform-origin: 275.08px 213.86px;" class="animable"></path></g></g></g><g id="freepik--Sun--inject-44" class="animable" style="transform-origin: 179.7px 84.785px;"><g id="freepik--freepik--Sun--inject-5--inject-44" class="animable" style="transform-origin: 179.7px 84.785px;"><g id="el4uezo7hkbfi" class="animable" style="transform-origin: 179.7px 84.785px;"><path d="M218.93,84.79c0,3.32-4.8,5.96-5.62,9.01s1.96,7.85,.37,10.61c-1.6,2.76-7.1,2.71-9.38,4.98-2.28,2.27-2.17,7.76-4.98,9.38-2.8,1.62-7.45-1.21-10.61-.37-3.16,.84-5.7,5.62-9.01,5.62s-5.96-4.8-9.01-5.62c-3.06-.82-7.84,1.97-10.61,.37-2.77-1.61-2.7-7.1-4.98-9.38-2.28-2.28-7.75-2.16-9.38-4.98-1.63-2.81,1.21-7.48,.37-10.63-.84-3.15-5.62-5.69-5.62-9.01s4.8-5.95,5.62-9c.82-3.06-1.96-7.85-.37-10.61,1.6-2.76,7.1-2.71,9.38-4.99,2.28-2.28,2.17-7.75,4.98-9.38s7.45,1.22,10.61,.37c3.16-.85,5.7-5.61,9.01-5.61s5.96,4.8,9.01,5.61c3.06,.81,7.84-1.96,10.61-.37,2.77,1.6,2.7,7.1,4.98,9.38,2.28,2.28,7.75,2.17,9.38,4.99,1.63,2.82-1.21,7.45-.37,10.61,.84,3.16,5.62,5.71,5.62,9.02Z" style="fill: rgb(64, 123, 255); transform-origin: 179.7px 84.785px;" id="el43gefnormqy" class="animable"></path><g id="elorkfxwumypr"><g style="isolation: isolate; opacity: 0.7; transform-origin: 179.7px 84.785px;" class="animable"><path d="M218.93,84.79c0,3.32-4.8,5.96-5.62,9.01s1.96,7.85,.37,10.61c-1.6,2.76-7.1,2.71-9.38,4.98-2.28,2.27-2.17,7.76-4.98,9.38-2.8,1.62-7.45-1.21-10.61-.37-3.16,.84-5.7,5.62-9.01,5.62s-5.96-4.8-9.01-5.62c-3.06-.82-7.84,1.97-10.61,.37-2.77-1.61-2.7-7.1-4.98-9.38-2.28-2.28-7.75-2.16-9.38-4.98-1.63-2.81,1.21-7.48,.37-10.63-.84-3.15-5.62-5.69-5.62-9.01s4.8-5.95,5.62-9c.82-3.06-1.96-7.85-.37-10.61,1.6-2.76,7.1-2.71,9.38-4.99,2.28-2.28,2.17-7.75,4.98-9.38s7.45,1.22,10.61,.37c3.16-.85,5.7-5.61,9.01-5.61s5.96,4.8,9.01,5.61c3.06,.81,7.84-1.96,10.61-.37,2.77,1.6,2.7,7.1,4.98,9.38,2.28,2.28,7.75,2.17,9.38,4.99,1.63,2.82-1.21,7.45-.37,10.61,.84,3.16,5.62,5.71,5.62,9.02Z" style="fill: rgb(255, 255, 255); transform-origin: 179.7px 84.785px;" id="elxdkceu6pdhb" class="animable"></path></g></g></g><g id="eled1s15qly8"><circle cx="179.7" cy="84.79" r="28.03" style="fill: rgb(64, 123, 255); transform-origin: 179.7px 84.79px; transform: rotate(-75.72deg);" class="animable"></circle></g><g id="eljqubnwh9kcq"><circle cx="179.7" cy="84.79" r="28.03" style="fill: rgb(255, 255, 255); isolation: isolate; opacity: 0.5; transform-origin: 179.7px 84.79px; transform: rotate(-75.72deg);" class="animable"></circle></g></g></g><g id="freepik--Character--inject-44" class="animable" style="transform-origin: 232.688px 324.356px;"><g id="elei77tq6t31p" class="animable" style="transform-origin: 232.688px 324.356px;"><g id="el5meumr5gltb" class="animable" style="transform-origin: 232.688px 371.458px;"><path d="M412.01,453.52l-40.03-58.16c-.81-1.16-2.13-1.86-3.55-1.86h-64.98c-.55,0-1.09,.1-1.6,.3-2.26,.89-3.38,3.45-2.49,5.71v.02l22.1,56.08c.36,1.02,1.47,1.55,2.49,1.19,1.02-.36,1.55-1.47,1.19-2.49h0l-15.4-51.74h56.38l41.94,53.83c.8,1.09,2.34,1.33,3.44,.53,1.09-.8,1.33-2.34,.53-3.44v.03Z" style="fill: rgb(38, 50, 56); transform-origin: 355.779px 425.451px;" id="el8cu9ueaowwg" class="animable"></path><path d="M176.26,393.5H111.28c-1.4,0-2.72,.7-3.51,1.86l-40.07,58.16c-.65,1.19-.22,2.68,.97,3.34,.96,.53,2.16,.36,2.93-.43l41.94-53.83h56.37l-15.39,51.74c-.36,1.01,.17,2.12,1.18,2.48,1.01,.36,2.12-.17,2.48-1.18l22.09-56.08c.2-.52,.31-1.07,.31-1.62,0-2.41-1.92-4.38-4.33-4.43Z" style="fill: rgb(38, 50, 56); transform-origin: 123.989px 425.333px;" id="el8emadlgvg73" class="animable"></path><path d="M419.91,391.08H184.93c-1.27,0-2.44-.69-3.04-1.81l-55.39-101.89c-.83-1.52-4.26-1.6-4.26-1.6,0,0-76.37-.6-77.98,0h0c-1.79,.67-2.7,2.67-2.03,4.47,.05,.14,.11,.27,.18,.4l56.38,106.22c.6,1.14,1.78,1.85,3.07,1.85H419.91c1.92,0,3.47-1.55,3.47-3.47h0v-.7c0-1.91-1.56-3.46-3.47-3.47Z" style="fill: rgb(64, 123, 255); transform-origin: 232.695px 342.117px;" id="eljjz2bsyuao" class="animable"></path><g id="elap9ey10tyha"><path d="M419.91,391.08H184.93c-1.27,0-2.44-.69-3.04-1.81l-55.39-101.89c-.83-1.52-4.26-1.6-4.26-1.6,0,0-76.37-.6-77.98,0h0c-1.79,.67-2.7,2.67-2.03,4.47,.05,.14,.11,.27,.18,.4l56.38,106.22c.6,1.14,1.78,1.85,3.07,1.85H419.91c1.92,0,3.47-1.55,3.47-3.47h0v-.7c0-1.91-1.56-3.46-3.47-3.47Z" style="fill: rgb(255, 255, 255); isolation: isolate; opacity: 0.5; transform-origin: 232.695px 342.117px;" class="animable"></path></g><g id="elx66d73qq3r8"><path d="M48.52,287.38l55.39,101.89c.6,1.12,1.77,1.81,3.04,1.81h221.98c1.91,0,3.46,1.56,3.47,3.47v.71c0,1.91-1.56,3.46-3.47,3.46H101.83c-1.28,0-2.44-.72-3.04-1.85l-56.38-106.22c-.91-1.69-.27-3.79,1.42-4.7,.12-.07,.25-.12,.38-.17h0c1.64-.63,3.48,.06,4.31,1.6Z" style="fill: rgb(255, 255, 255); isolation: isolate; opacity: 0.4; transform-origin: 187.198px 342.134px;" class="animable"></path></g></g><g id="elsnt9ij2h7lr" class="animable" style="transform-origin: 227.415px 292.423px;"><path d="M132.06,276.16c-7.32-7.24-12.66-16.47-15.27-26.43l-15.99,5.93c-.92,11.07,1.32,22.38,6.38,32.27,.98,1.91,2.19,3.9,4.16,4.76,2.24,.98,4.83,.26,7.11-.64,4.65-1.83,9.03-4.34,12.97-7.42,1.58-1.24,3.24-2.93,2.99-4.93-.18-1.43-1.31-2.53-2.34-3.55Z" style="fill: rgb(38, 50, 56); transform-origin: 117.517px 271.445px;" id="el4p59nal1k7q" class="animable"></path><g id="elwuc2nlsqsn" class="animable" style="transform-origin: 93.8507px 229.049px;"><path d="M120.57,191.33c-5.11-.17-9.18,.68-12.98,4.18-5.49,5.06-6.58,9.42-9.55,12.58-7.18,7.61-17.94,16.66-26.47,22.79-3.98,2.86-7.57,3.3-12.34,6.66-3.99,2.82-6.18,6.38-7.7,10.92-1.52,4.54-1.06,9.82,2.01,13.37,3.06,3.54,8.13,4.85,12.96,4.95,11.59,.25,23.35-5.84,29.83-15.43l24.71-14.84c13.44-8.12,16.66-21.05,15.86-29.28s-7.83-15.61-16.34-15.9Z" style="fill: rgb(64, 123, 255); transform-origin: 93.8507px 229.049px;" id="elhaiha8rf5na" class="animable"></path><g id="elmgsounfe7"><path d="M100.57,209.29s6.74-9.75,10.7-11.94c3.03-1.68,7.46-3.25,12.68-1.2,5.47,2.15,9.01,6.92,9.71,11.41,.72,4.66,1.09,8.84-2.82,16.07-3.91,7.23-10.96,11.01-10.96,11.01l-19.31-25.36Z" style="opacity: 0.3; transform-origin: 117.344px 214.908px;" class="animable"></path></g><g id="elb3es5wn6xfq"><path d="M73.48,233.1s-10.79,4.98-14.14,8.01c-3.55,3.22-5.24,7.84-5.63,11.64-.32,3.14,1.65,10.8,12.07,11.91,10.43,1.11,21.52-6.99,21.52-6.99l-13.83-24.58Z" style="opacity: 0.3; transform-origin: 70.4892px 248.927px;" class="animable"></path></g></g><path d="M72.65,233.79s8.31,33.87,5,44.11c-3.31,10.24-20.04,29.16-12.23,38.32,5.07,5.95,13.64,2.55,13.64,2.55,0,0,.75,9.73,9.99,10.48,9.25,.75,19.85-4.8,19.85-4.8,0,0-7.58-69.47-7.16-69.14,.42,.32-28.26-22.21-28.26-22.21" style="fill: rgb(38, 50, 56); transform-origin: 86.1324px 281.21px;" id="elemnl66ay5ok" class="animable"></path><path d="M118.09,269.46s4.94-.37,8.96,2.63c4.65,3.47,26.21,42.57,24.84,39.7l8.59,12.14s-1.35,4.97-9.12,5.45c-7.77,.48-20.66-8.42-21.19-8.55-.54-.12-12.08-51.37-12.08-51.37Z" style="fill: rgb(235, 179, 115); transform-origin: 139.285px 299.422px;" id="elu3oe13drydl" class="animable"></path><g id="ell97ecrtzwa8" class="animable" style="transform-origin: 242.554px 330.959px;"><g id="elcihbwgiowba" class="animable" style="transform-origin: 248.699px 352.706px;"><path d="M163.09,344.27s64.91-26.47,70.49-28.82c12.43-5.22,20.66-2.74,27.52,2.72,6.86,5.46,83.77,48.85,83.77,48.85,0,0,9.65,4.88,20.31,12.92,5.78,4.36,10.47,3.78,10.13,7.67-.37,4.17-5.5,5.12-11.66,3.89-6.15-1.23-12.33-2.4-17.54-1.11-5.2,1.29-9.81,.54-11.07-2.82-1.27-3.36-.64-10.01-.64-10.01,0,0-50.89-10.5-65.88-18.26-8.97-4.64-20.34-13.41-20.34-13.41,0,0-36.14,20.51-49.09,27.61-12.74,6.99-28.59,17.45-37.87,18.86-9.27,1.41-30.44,.72-39.15-16.65,4.86-20.88,14.62-34.64,29.26-41.33l11.74,9.87Z" style="fill: rgb(235, 179, 115); transform-origin: 248.699px 352.706px;" id="el6dzf5fuj3ri" class="animable"></path><g id="elc7osqe9t2i4"><polygon points="229.53 356.47 165.74 347.76 163.57 344.08 169.12 341.92 173.63 345.97 232.69 354.55 229.53 356.47" style="opacity: 0.3; transform-origin: 198.13px 349.195px;" class="animable"></polygon></g><g id="el8e8u917o7oc"><path d="M268.53,359.32l78.33,8.77-1.41-.76-85.63-13.19c2.74,1.83,5.64,3.56,8.71,5.18Z" style="opacity: 0.3; transform-origin: 303.34px 361.115px;" class="animable"></path></g><g id="elu0w7bh1g4u"><path d="M333.85,385.99s20.43-4.4,24.6-3.91,14.07,6.4,16.72,6.33l-1.03,1.8s-14.37-4.74-16.82-4.79c-2.45-.05-21.84,3.01-21.84,3.01l-1.63-2.44Z" style="opacity: 0.3; transform-origin: 354.51px 386.126px;" class="animable"></path></g></g><path d="M155.16,349.38s103.6,10.22,109.93,9.89c10.79-.57,57.37,7.95,96.45,9.72,0,0,24.54-3.12,26.68-3.76,2.66-.8,11.19-4.33,14.73-2.21,3.39,2.03-1.06,7.1-5.63,9.84-4.57,2.74-10.32,6.44-12.5,8.64-2.18,2.2-1.8,5.52-6.99,6.84-5.19,1.32-15.88-5.9-19.38-6.26s-34.98,6.73-48.65,6.67c-13.67-.06-30.94-4.02-44.31-3.62-13.36,.41-88.34,11.19-113.15,7.72-24.81-3.47,2.82-43.47,2.82-43.47Z" style="fill: rgb(235, 179, 115); transform-origin: 273.072px 371.459px;" id="elxrnndtbwsl" class="animable"></path><g id="elinswiotyw" class="animable" style="transform-origin: 126.892px 330.685px;"><path d="M88.54,279.58s-1.84,1.45-5.92,7.99c-2.77,4.43-.6,7.69,1,15.65,3.18,15.92,18.46,23.47,27.03,46.62,1.83,4.95,4.06,15.32,6.21,21.73,5.07,15.05,14.24,20.45,27.89,21.42-19.75-12.71-18.46-25.44-9.3-38.11,4.41-6.1,17.8-8.86,37.37-6.36,0,0-20.44-19.26-23.56-21.02-.87-.49-4.12-10.29-4.12-10.29,0,0,3.62-6.95-.08-18.86-3.7-11.91-26.95-28.9-26.95-28.9l-1.9,.26-27.66,9.86Z" style="fill: rgb(64, 123, 255); transform-origin: 127.055px 331.22px;" id="elnak63zls78h" class="animable"></path><path d="M88.29,280.05s7.77,1.76,18.12,7.49c8.3,4.6,23.14,7.6,26.46,.04,1.58-3.6-11.53-13.16-16.61-17.85l-5.38-1.35-15.53,2.13-7.06,9.54Z" style="fill: rgb(235, 179, 115); transform-origin: 110.646px 280.285px;" id="elsyi1fsfzcna" class="animable"></path><path d="M82.03,295.26s4.22,26.09,14.39,26.63c8.7,.46,9.84-13.46,9.84-13.46l-24.23-13.17Z" style="fill: rgb(235, 179, 115); transform-origin: 94.145px 308.581px;" id="el83cjxpsy3bb" class="animable"></path><path d="M136.75,283.58l-9.4,31.82s-20.86-24.56-30.69-30.24c-10.78-6.24-16.56,3.64-15.59,9.99,1.33,8.64,4.16,17.72,9.63,19.3,0,0,21.51,14.83,37.19,21.75,6.4,2.82,13.67-1.51,14.26-8.48l4.01-42.3-9.42-1.85Z" style="fill: rgb(235, 179, 115); transform-origin: 113.562px 310.122px;" id="el6duiy0i0seb" class="animable"></path></g></g><g id="elmdgio64wky" class="animable" style="transform-origin: 91.8627px 244.906px;"><g id="elg0gml08wdev" class="animable" style="transform-origin: 97.4078px 245.506px;"><g id="elmgrfvn8s5m" class="animable" style="transform-origin: 97.4078px 245.506px;"><path d="M118.84,238.48c2.2-8.37,1-28.98-18.06-30.21-23.79-1.53-29.72,15-27.82,29.25,1.9,14.25,16.73,29.04,30.8,24.06,14.07-4.98,13.56-17.3,15.08-23.09Z" style="fill: rgb(38, 50, 56); transform-origin: 96.1373px 235.369px;" id="elhgk6hyseqmd" class="animable"></path><g id="elnchn0tfdyb" class="animable" style="transform-origin: 99.053px 247.364px;"><g id="elfok96g72zo5" class="animable" style="transform-origin: 99.053px 247.364px;"><path d="M91.91,275.47s5.92,2.1,13.74,5.38c1.63,.68,3.33,1.17,5.07,1.48,4.69,.82,8.73,.85,9.09-1.39,.08-.5,.1-1.01,.07-1.53-.21-3.5-2.03-7.93-5.31-9.16-3.7-1.39-5.77-2.93-6.27-6.27-.31-1.89-.26-3.95-.08-6l-3.19-1.95-16.08-8.29c2.95,8.06,7.92,21.23,2.98,27.74Z" style="fill: rgb(235, 179, 115); transform-origin: 104.422px 265.291px;" id="elg0my8c13u9d" class="animable"></path><g id="el168kcvm6fyu"><path d="M108.42,264.71c-3.97-.89-8.74-3.14-9.58-7.2-.34-1.71-.49-3.39-.42-4.52l9.68,6.76c-.09,1.62,.02,2.64,.33,4.96Z" style="opacity: 0.2; transform-origin: 103.417px 258.85px;" class="animable"></path></g><path d="M81.24,235.74c5.18,12.07,7.12,17.28,15.66,21.71,12.85,6.68,26.63-1.45,25.18-14.62-1.31-11.85-9.56-29.6-23.48-30.86-13.71-1.24-22.55,11.69-17.36,23.76Z" style="fill: rgb(235, 179, 115); transform-origin: 100.961px 235.862px;" id="elxlo5btgxptk" class="animable"></path><path d="M98.31,235.18c.48,1.23,1.58,2.01,2.47,1.74,.89-.27,1.22-1.48,.74-2.71-.48-1.23-1.58-2.01-2.47-1.74-.89,.27-1.22,1.48-.74,2.71Z" style="fill: rgb(38, 50, 56); transform-origin: 99.915px 234.695px;" id="el9i5yhcs3xuj" class="animable"></path><path d="M111.17,230.75c.46,1.17,1.54,1.91,2.41,1.65,.87-.26,1.21-1.43,.75-2.6-.46-1.17-1.53-1.91-2.41-1.65-.87,.26-1.2,1.43-.75,2.6Z" style="fill: rgb(38, 50, 56); transform-origin: 112.752px 230.275px;" id="elq9opjzfzzkr" class="animable"></path><path d="M95.06,231.16c.18-.02,.35-.11,.46-.26,1.7-2.29,4.26-2.2,4.29-2.2,.38,.02,.7-.25,.7-.6,0-.35-.31-.65-.7-.67-.13,0-3.35-.13-5.46,2.72-.21,.28-.12,.68,.2,.89,.16,.1,.34,.14,.51,.12Z" style="fill: rgb(38, 50, 56); transform-origin: 97.3733px 229.297px;" id="el5584itrky4" class="animable"></path><path d="M113.61,223.28c.12-.11,.19-.26,.19-.42,0-.34-.29-.62-.65-.62-3.66-.05-5.41,2.29-5.48,2.39-.21,.28-.13,.66,.18,.85,.3,.19,.71,.11,.92-.17,.07-.09,1.45-1.89,4.36-1.85,.19,0,.36-.07,.48-.18Z" style="fill: rgb(38, 50, 56); transform-origin: 110.676px 223.911px;" id="el26dlhafdh5u" class="animable"></path><path d="M88.04,221.3c5.31,2.87,8.44,19.21-2,24.88-13.78,1.15-13.84-33.44,2-24.88Z" style="fill: rgb(38, 50, 56); transform-origin: 84.4372px 233.072px;" id="elpxbhrvzjkw" class="animable"></path><path d="M111.67,243.43c-.51,1.89-.74,5.31-.74,5.31-.31,.03-.63,.07-.94,.09-4.26,.36-6.36-.88-7.39-2.37-.56-.81-.8-1.71-.89-2.46-.12-.86,0-1.49,0-1.49,2.37,1.16,6.37,1.13,8.51,1.02,.89-.03,1.45-.1,1.45-.1Z" style="fill: rgb(38, 50, 56); transform-origin: 106.663px 245.701px;" id="el4fdjwa18t19" class="animable"></path><path d="M110.21,243.54l-.26,1.56c-4.02,.33-6.89,.02-8.25-1.09-.12-.86,0-1.49,0-1.49,2.37,1.16,6.37,1.13,8.51,1.02Z" style="fill: rgb(255, 255, 255); transform-origin: 105.928px 243.872px;" id="eld31gq8rsup9" class="animable"></path><path d="M109.98,248.83c-4.26,.36-6.36-.88-7.39-2.37,1.46-.07,3.22,.01,4.81,.54,1.22,.4,2.02,1.1,2.58,1.83Z" style="fill: rgb(220, 87, 83); transform-origin: 106.285px 247.666px;" id="el40fo76giyx2" class="animable"></path><path d="M107.4,231.01s4.17,4.85,7.5,6.8c-1.09,2.06-4.19,2.17-4.19,2.17l-3.31-8.97Z" style="fill: rgb(228, 135, 62); transform-origin: 111.15px 235.495px;" id="elnx8qvy004k" class="animable"></path></g><path d="M101.34,231.07l-2.64,1.6c1.77,1.03,2.64-1.6,2.64-1.6Z" style="fill: rgb(38, 50, 56); transform-origin: 100.02px 231.99px;" id="elh6t4ovaoz5e" class="animable"></path><path d="M114.06,226.79l-2.64,1.6c1.77,1.03,2.64-1.6,2.64-1.6Z" style="fill: rgb(38, 50, 56); transform-origin: 112.74px 227.71px;" id="elctwk35b6ub" class="animable"></path></g><path d="M97.66,209.34c5.46,.07,13.44,6.88,15.37,9.87-6.62,3.41-27.58,2.99-27.58,2.99,0,0-11.44,7.56-7.14-.89,4.3-8.44,19.35-11.97,19.35-11.97Z" style="fill: rgb(38, 50, 56); transform-origin: 95.1867px 217.326px;" id="eljuzyo2uih5h" class="animable"></path><path d="M80.77,247.1c2.3,2.07,5.21,2.9,7.58,2.74,3.56-.24,3.54-6.09,1.35-9.03-1.98-2.64-5.85-3.56-8.85-1.87-2.95,1.66-2.7,5.78-.07,8.16Z" style="fill: rgb(235, 179, 115); transform-origin: 84.9662px 243.973px;" id="eldb11x0xkh24" class="animable"></path></g><path d="M89.24,249.19c.42,1.28-.28,2.66-1.57,3.07-1.28,.42-2.66-.28-3.07-1.57-.42-1.28,.28-2.66,1.57-3.07,1.28-.42,2.66,.28,3.07,1.57Z" style="fill: rgb(64, 123, 255); transform-origin: 86.92px 249.94px;" id="el0xmipub9ibj9" class="animable"></path><g id="el6zpsf8qfo1j"><path d="M88.17,244.9c-.1,0-.2-.06-.23-.16-.38-1.05-1.28-1.92-2.34-2.27-1.06-.35-2.3-.18-3.23,.44-.12,.08-.27,.04-.35-.07-.08-.12-.05-.27,.07-.35,1.06-.7,2.46-.9,3.66-.5,1.2,.39,2.22,1.38,2.65,2.57,.05,.13-.02,.27-.15,.32-.03,.01-.06,.02-.09,.02Z" style="opacity: 0.1; transform-origin: 85.1958px 243.343px;" class="animable"></path></g></g><path d="M86.83,208.24c-4.59,1.12-9.05,3.41-11.93,7.16-3.59,4.68-4.26,10.97-3.95,16.85l-9.41,6.31c15.12-7.67,28.62-18.5,39.38-31.59-4.73,.07-9.5,.14-14.09,1.26Z" style="fill: rgb(64, 123, 255); transform-origin: 81.23px 222.765px;" id="el633dx3x158y" class="animable"></path></g><g id="eleys55fznu17"><path d="M70.91,231.27s14.37-10.25,17.37-14.05l-17.36,10.95v3.1Z" style="opacity: 0.3; transform-origin: 79.595px 224.245px;" class="animable"></path></g><g id="el93wlb5tixkk"><path d="M100.61,320.96l-11.53-7.24s10.34,14.4,22.4,16.28l5.38,.65-16.25-9.69Z" style="opacity: 0.3; transform-origin: 102.97px 322.185px;" class="animable"></path></g><g id="el6o5tgehfwsv" class="animable" style="transform-origin: 148.814px 289.35px;"><g id="ellbeaipptds" class="animable" style="transform-origin: 164.023px 294.673px;"><path d="M148.22,319.66c.09-.45,10.22-31.99,10.22-31.99,0,0,8-3.23,8.22-3.49,.28-.34-1.95,23.78-2.76,32.33-.18,1.9-2.37,6.88-3.75,8.2l-2.37,1.98c-2.89,2.77-3.69-2.25-6.8-4.78l-2.77-2.26Z" style="fill: rgb(235, 179, 115); transform-origin: 157.447px 305.838px;" id="els4hvw7ho1eg" class="animable"></path><g id="freepik--freepik--Coconut--inject-3--inject-44" class="animable" style="transform-origin: 164.023px 277.291px;"><path d="M181.36,267.1s4.24,12.12-6.82,21.9c-11.06,9.78-31.71-.8-28.27-18.25l35.09-3.65Z" style="fill: rgb(38, 50, 56); transform-origin: 164.023px 279.918px;" id="elbs0lee755rj" class="animable"></path><g id="elkp2oav4nkn8"><path d="M181.36,267.1s4.24,12.12-6.82,21.9c-11.06,9.78-31.71-.8-28.27-18.25l35.09-3.65Z" style="fill: rgb(255, 255, 255); isolation: isolate; opacity: 0.3; transform-origin: 164.023px 279.918px;" class="animable"></path></g><path d="M179.27,264.56c1.08,.49,2.31,1.38,2.09,2.55-.1,.56-.52,1.01-.94,1.4-7.5,7.12-18.88,9.85-28.8,6.92-1.35-.4-2.7-.91-3.76-1.83-1.06-.92-1.79-2.32-1.59-3.71,.36-2.47,3.03-3.54,5.07-4.28,2.13-.77,4.14-1.83,6.34-2.48,4.58-1.35,9.42-1.64,14.13-.85,2.57,.43,5.07,1.2,7.45,2.28Z" style="fill: rgb(64, 123, 255); transform-origin: 163.811px 269.218px;" id="ely9ajkux7uv" class="animable"></path><g id="el3phe7n0e4vn"><path d="M179.27,264.56c1.08,.49,2.31,1.38,2.09,2.55-.1,.56-.52,1.01-.94,1.4-7.5,7.12-18.88,9.85-28.8,6.92-1.35-.4-2.7-.91-3.76-1.83-1.06-.92-1.79-2.32-1.59-3.71,.36-2.47,3.03-3.54,5.07-4.28,2.13-.77,4.14-1.83,6.34-2.48,4.58-1.35,9.42-1.64,14.13-.85,2.57,.43,5.07,1.2,7.45,2.28Z" style="fill: rgb(255, 255, 255); opacity: 0.8; transform-origin: 163.811px 269.218px;" class="animable"></path></g><g id="eldyqrkz6lok9"><path d="M174.16,266.06c.72,.33,1.54,.92,1.4,1.7-.11,.37-.33,.7-.63,.94-5.01,4.75-12.62,6.58-19.24,4.63-.9-.27-1.8-.61-2.51-1.22-.71-.62-1.19-1.55-1.06-2.48,.24-1.65,2.03-2.36,3.39-2.86,1.42-.51,2.77-1.22,4.24-1.66,3.06-.9,6.29-1.1,9.44-.57,1.72,.29,3.39,.8,4.97,1.52Z" style="isolation: isolate; opacity: 0.2; transform-origin: 163.837px 269.175px;" class="animable"></path></g><g id="els8bb43xuihl"><path d="M160.6,279.5l2.09-.05c-.52,.18-1.03,.47-1.55,.65-.07,.73-.05,1.5-.12,2.24,.2,.02,.44-.18,.64-.17-.1,.31-.21,.65-.53,.7-.22,.82-.08,1.86,.53,2.45-.45-.1-.83-.41-1-.84-.17-.44-.27-.9-.3-1.37l-.27-2.58c-.03-.41,.17-.81,.51-1.04Z" style="isolation: isolate; opacity: 0.1; transform-origin: 161.389px 282.385px;" class="animable"></path></g><g id="elc4jv49e12nh"><path d="M165.56,277.61c1.17-.07,2.3-.41,3.31-.99-.63,.78-1.54,1.29-2.53,1.42,.15,1.16,.21,2.64,.37,3.81,.84,.22,2.09,.14,2.78-.39-.77,.51-1.84,1.48-2.61,1.98,.15,1.58,.21,3.23,.36,4.81,.76-.06,1.48-.37,2.04-.89,.79-.15,1.6-.28,2.37-.42-.73,.29-1.55,.48-2.28,.77-.79,.31-1.23,1.36-2.01,1.68,0,.62,.08,1.47,.08,2.09-.48-1.29-.93-2.73-.79-4.09,.03-.28,.05-.62-.19-.78-.15-.08-.31-.11-.47-.09l-2.11,.08c.94-.1,1.58-.51,2.33-1.08,0-2.65-.21-5.29-.66-7.9Z" style="isolation: isolate; opacity: 0.1; transform-origin: 167.765px 284.05px;" class="animable"></path></g><g id="elbypocf848ec"><path d="M154.65,278.06c.88,.53,1.94,.69,2.93,.43,.08,1.65,.14,3.18,.22,4.83,.4,0,.95,.22,1.35,.22-.46,.46-.81,.84-1.46,.89,.13,2.12,.64,4.2,1.5,6.14-1.95-3.06-2.8-6.68-2.43-10.28,.04-.26-.04-.53-.22-.73-.88,.02-1.6-.65-1.9-1.48Z" style="isolation: isolate; opacity: 0.1; transform-origin: 156.915px 284.315px;" class="animable"></path></g><g id="el02pdctz6epw9"><path d="M151.35,285.06c-1.63-2.76-2.38-5.95-2.15-9.15-.54-.57-1.34-1.32-1.88-1.89,.35,.68,.73,1.33,1.08,2.01,.46,.89,0,2.08,.03,3.07-.24-.14-.82-.52-1.05-.66,.35,.57,.67,1.04,1.28,1.34,.08,1.96,1.34,3.86,2.69,5.27Z" style="isolation: isolate; opacity: 0.1; transform-origin: 149.335px 279.54px;" class="animable"></path></g><g id="eli5k7amaasfg"><path d="M178.73,281.84c.04-1.91-.04-4.11,0-6.02,.68,.04,1.28-.45,1.38-1.13-1.48,.17-.95-.54-.87-1.7,.91-.76,1.19-1.47,1.01-2.64-.36,1.14-1.16,2.08-2.22,2.62-.35,3.04-.02,5.88,.7,8.87Z" style="isolation: isolate; opacity: 0.1; transform-origin: 179.096px 276.095px;" class="animable"></path></g><g id="el1qb4znduxsn"><path d="M175.39,285.2c.14-3.56,.1-7.12-.1-10.68-.52,.45-1.45,.09-2.13,.22,.45,.19,.8,.3,1.25,.49,.17,3.36,.8,6.6,.98,9.97Z" style="isolation: isolate; opacity: 0.1; transform-origin: 174.316px 279.86px;" class="animable"></path></g><g id="el61lk795wxl4"><path d="M172.88,285.62c.16-2.5,.04-5.01-.37-7.48,0,1.21-.06,1.67-.07,2.88-.62,.28-1.54,.24-2.16,.52,.55,.21,1.44,.32,1.99,.53-.01,1.33,.22,2.27,.62,3.55Z" style="isolation: isolate; opacity: 0.1; transform-origin: 171.614px 281.88px;" class="animable"></path></g><g id="elx5lih4vs3lc"><path d="M152.75,279.31c-.2,1.87,.11,3.75,.91,5.45,.43,.09,1.21,.22,1.64,.31-.47,.06-1.04,.17-1.51,.22,.3,1.01,.62,2.36,.92,3.37-1.41-3-2.51-6.23-2.95-9.52,.39,0,.59,.15,.99,.16Z" style="isolation: isolate; opacity: 0.1; transform-origin: 153.53px 283.9px;" class="animable"></path></g></g><path d="M153.18,272.1s4.51-3.09,11.16-3.8c6.65-.72,10.59,.4,10.59,.4,0,0-4.38,5.04-12.3,5.38-7.93,.35-9.44-1.98-9.44-1.98Z" style="fill: rgb(64, 123, 255); transform-origin: 164.055px 271.087px;" id="elje3ehc03btn" class="animable"></path><path d="M146.26,270.34c.53,3.67,4.55,4.78,7.67,5.41,8.62,1.88,16.81-.2,23.9-5.31,1.04-.72,2.08-1.47,2.94-2.4,.27-.31,.58-.65,.59-1.09,.03,.44-.26,.82-.5,1.16-.81,1-1.81,1.83-2.82,2.62-7,5.57-15.49,7.75-24.24,5.58-3.12-.72-7.37-2.19-7.54-5.97h0Z" style="fill: rgb(38, 50, 56); transform-origin: 163.811px 272.044px;" id="elnm20i71hq9p" class="animable"></path></g><g id="elkza6rjaica" class="animable" style="transform-origin: 167.776px 262.564px;"><g id="el8fizvrc5jcj" class="animable" style="transform-origin: 167.776px 262.564px;"><path d="M167.73,262.71c.45,.2,.9,.4,1.37,.51s.99,.11,1.44-.07,.84-.58,.92-1.06c.06-.35-.03-.71-.21-1.01-.17-.29-.42-.54-.74-.65-.54-.19-1.15,.06-1.55,.47-.4,.41-1.02,1.29-1.24,1.81" style="fill: rgb(64, 123, 255); transform-origin: 169.599px 261.83px;" id="elzadj0d507ib" class="animable"></path><path d="M167.76,262.66c.24-.43,.48-.85,.64-1.32s.21-.98,.06-1.44c-.14-.47-.5-.89-.97-1.01-.34-.09-.71-.03-1.02,.12-.3,.14-.57,.37-.71,.67-.24,.52-.05,1.15,.32,1.58s1.19,1.14,1.69,1.4" style="fill: rgb(64, 123, 255); transform-origin: 167.102px 260.754px;" id="elbr78bhrfjd" class="animable"></path><path d="M167.82,262.42c-.45-.2-.9-.39-1.38-.49-.48-.1-.99-.1-1.44,.09-.45,.19-.83,.59-.91,1.07-.06,.35,.04,.71,.22,1.01,.17,.29,.43,.53,.74,.64,.54,.18,1.15-.07,1.54-.48s1.01-1.3,1.22-1.83" style="fill: rgb(64, 123, 255); transform-origin: 165.946px 263.331px;" id="elcocp1xmnu7" class="animable"></path><path d="M167.78,262.47c-.24,.43-.47,.86-.62,1.33-.15,.47-.19,.98-.05,1.44s.51,.88,.98,1c.34,.09,.71,.02,1.02-.13,.3-.15,.57-.38,.7-.68,.23-.52,.03-1.15-.34-1.58s-1.2-1.12-1.71-1.38" style="fill: rgb(64, 123, 255); transform-origin: 168.466px 264.375px;" id="el5vlbprv4av" class="animable"></path></g><path d="M168.56,262.24c.05-.07,.08-.16,.09-.25,0-.09-.03-.18-.11-.23-.09-.05-.2-.02-.29,.04-.18,.11-.29,.32-.29,.53-.04-.22-.1-.44-.18-.64-.03-.09-.09-.18-.18-.19-.07,0-.13,.04-.16,.11-.03,.06-.03,.13-.03,.2,0,.42,.14,.84,.38,1.19h0c.31-.09,.58-.46,.77-.75Z" style="fill: rgb(255, 255, 255); transform-origin: 168.03px 262.25px;" id="elwtjeeqyteu" class="animable"></path></g><path d="M115.49,253.2c.41-.02,12.59,2.9,12.72,3.12s27.67,16.56,27.67,16.56c.89-.31,2.8-.72,2.8-.72l-29.62-17.6-13.09-3.36c-.21,.13-.5,2.01-.5,2.01Z" style="fill: rgb(38, 50, 56); transform-origin: 137.075px 262.04px;" id="elqjz7h6r5rvr" class="animable"></path><path d="M136.75,283.58s-2.04-14.35-.68-16.39,4.29-6.46,5.93-6.14c1.65,.32,1.84,1.7,1.84,1.7,0,0,.92-1.51,2.52-.18l1.6,1.32s2.16-1.24,3,1.13c0,0,2.18-.95,1.51,2.2-.66,3.16-1.18,12.84-4.6,16.38s-4.68,5.41-4.68,5.41l-6.45-5.43Z" style="fill: rgb(235, 179, 115); transform-origin: 144.1px 275.022px;" id="elhdvpwjtkhjp" class="animable"></path><path d="M165.15,295.53c4.39-1.35,8.66-3.07,12.77-5.12,.98-.49,1.97-1.02,2.65-1.88,.9-1.13,1.12-2.66,1.23-4.1,.11-1.44,.14-2.88,.1-4.32-.01-.44-.04-.89-.26-1.27-.22-.38-.69-.64-1.1-.49-.39,.15-.56,.61-.68,1.02-.61,2.05-.72,4.14-1.33,6.2-.49-1.49-1.47-3.01-1.96-4.49-.17-.52-.42-1.12-.95-1.27-.89-.26-1.43,1.01-1.21,1.92,.2,.83,.49,2.26,.63,3.19,.21,1.46,.18,1.87-.97,2.68-1.15,.8-2.25,1.14-3.82,1.55-1.91,.5-3.87,.73-5.81,1.1-1.51,.28-3.15,.65-4.08,1.87" style="fill: rgb(235, 179, 115); transform-origin: 171.138px 286.918px;" id="elx45quixzx6i" class="animable"></path><path d="M172.05,289.52s-2.15-6.23-.87-6.59,1.75-.37,2.35,1.85c.6,2.21,1.39,4.05,1.39,4.05l-2.87,.69Z" style="fill: rgb(235, 179, 115); transform-origin: 172.847px 286.135px;" id="elm2o2lkmkztn" class="animable"></path><g id="el7vig2w0oojg" class="animable" style="transform-origin: 174.676px 261.407px;"><g id="elrbt8593zo8r" class="animable" style="transform-origin: 174.676px 261.407px;"><path d="M174.77,261.65c.87-.22,1.75-.45,2.55-.84,.81-.39,1.55-.97,1.99-1.75,.44-.78,.53-1.79,.1-2.58-.31-.57-.86-.98-1.46-1.21-.57-.22-1.22-.29-1.8-.08-.99,.34-1.58,1.4-1.69,2.44-.11,1.04,0,3.02,.29,4.02" style="fill: rgb(64, 123, 255); transform-origin: 177.054px 258.357px;" id="el2lii2n3ipyq" class="animable"></path><path d="M174.76,261.54c-.14-.89-.28-1.78-.6-2.62-.32-.84-.82-1.63-1.56-2.14-.74-.51-1.73-.7-2.56-.34-.59,.26-1.05,.76-1.34,1.34-.27,.55-.4,1.19-.25,1.78,.25,1.01,1.25,1.7,2.27,1.9,1.02,.2,3,.27,4.03,.08" style="fill: rgb(64, 123, 255); transform-origin: 171.573px 258.953px;" id="el7v1kii2our7" class="animable"></path><path d="M174.56,261.14c-.87,.23-1.74,.47-2.54,.87-.8,.4-1.54,.99-1.97,1.78s-.51,1.8-.07,2.58c.32,.56,.87,.96,1.47,1.19,.57,.21,1.22,.27,1.8,.06,.98-.35,1.56-1.42,1.66-2.46s-.04-3.02-.34-4.02" style="fill: rgb(64, 123, 255); transform-origin: 172.314px 264.445px;" id="elm8xy3vl1dzf" class="animable"></path><path d="M174.57,261.25c.15,.89,.3,1.78,.63,2.61,.33,.84,.84,1.62,1.59,2.13,.74,.5,1.74,.68,2.56,.31,.59-.26,1.04-.78,1.32-1.36,.26-.55,.38-1.19,.23-1.79-.26-1.01-1.27-1.69-2.3-1.88-1.03-.19-3.01-.24-4.03-.03" style="fill: rgb(64, 123, 255); transform-origin: 177.768px 263.8px;" id="el75yme2zmmoi" class="animable"></path></g><g id="el0oke1grjnqr"><g style="opacity: 0.3; transform-origin: 174.676px 261.407px;" class="animable"><path d="M174.77,261.65c.87-.22,1.75-.45,2.55-.84,.81-.39,1.55-.97,1.99-1.75,.44-.78,.53-1.79,.1-2.58-.31-.57-.86-.98-1.46-1.21-.57-.22-1.22-.29-1.8-.08-.99,.34-1.58,1.4-1.69,2.44-.11,1.04,0,3.02,.29,4.02" style="fill: rgb(255, 255, 255); transform-origin: 177.054px 258.357px;" id="elr37h2xctsf" class="animable"></path><path d="M174.76,261.54c-.14-.89-.28-1.78-.6-2.62-.32-.84-.82-1.63-1.56-2.14-.74-.51-1.73-.7-2.56-.34-.59,.26-1.05,.76-1.34,1.34-.27,.55-.4,1.19-.25,1.78,.25,1.01,1.25,1.7,2.27,1.9,1.02,.2,3,.27,4.03,.08" style="fill: rgb(255, 255, 255); transform-origin: 171.573px 258.953px;" id="elg8t2z2a0eks" class="animable"></path><path d="M174.56,261.14c-.87,.23-1.74,.47-2.54,.87-.8,.4-1.54,.99-1.97,1.78s-.51,1.8-.07,2.58c.32,.56,.87,.96,1.47,1.19,.57,.21,1.22,.27,1.8,.06,.98-.35,1.56-1.42,1.66-2.46s-.04-3.02-.34-4.02" style="fill: rgb(255, 255, 255); transform-origin: 172.314px 264.445px;" id="el66su75wa89s" class="animable"></path><path d="M174.57,261.25c.15,.89,.3,1.78,.63,2.61,.33,.84,.84,1.62,1.59,2.13,.74,.5,1.74,.68,2.56,.31,.59-.26,1.04-.78,1.32-1.36,.26-.55,.38-1.19,.23-1.79-.26-1.01-1.27-1.69-2.3-1.88-1.03-.19-3.01-.24-4.03-.03" style="fill: rgb(255, 255, 255); transform-origin: 177.768px 263.8px;" id="el0j2x5vxnrdmc" class="animable"></path></g></g><path d="M175.42,260.02c-.02-.16-.07-.32-.16-.45-.09-.13-.25-.23-.41-.21-.19,.03-.32,.21-.38,.39-.12,.36-.05,.79,.2,1.09-.3-.28-.64-.52-1-.72-.15-.08-.34-.16-.48-.06-.11,.07-.14,.22-.11,.34,.03,.12,.1,.23,.18,.33,.49,.6,1.17,1.05,1.91,1.26h0c.35-.48,.31-1.33,.25-1.96Z" style="fill: rgb(255, 255, 255); transform-origin: 174.264px 260.674px;" id="elhqpl32x8rd4" class="animable"></path></g></g></g></g></g><g id="freepik--Plant--inject-44" class="animable" style="transform-origin: 259.807px 443.8px;"><path d="M271.82,451.63c1.82-6.12,1.91-12.74,.27-18.91-2.59,6.44-6.28,12.44-10.86,17.66-.9-8.41-2.44-16.75-4.59-24.92-3.34,8.43-4.73,17.62-4.04,26.66-5.08-5.01-10.59-9.59-16.43-13.69,.51,7.77,5.1,17.92,15.33,23.66l16.31,.05c9.03-2.43,15.82-11.48,15.63-20.83-2.59,4.6-6.75,8.3-11.63,10.33Z" style="fill: rgb(64, 123, 255); transform-origin: 259.807px 443.8px;" id="elojgaj6mb17e" class="animable"></path></g><defs>     <filter id="active" height="200%">         <feMorphology in="SourceAlpha" result="DILATED" operator="dilate" radius="2"></feMorphology>                <feFlood flood-color="#32DFEC" flood-opacity="1" result="PINK"></feFlood>        <feComposite in="PINK" in2="DILATED" operator="in" result="OUTLINE"></feComposite>        <feMerge>            <feMergeNode in="OUTLINE"></feMergeNode>            <feMergeNode in="SourceGraphic"></feMergeNode>        </feMerge>    </filter>    <filter id="hover" height="200%">        <feMorphology in="SourceAlpha" result="DILATED" operator="dilate" radius="2"></feMorphology>                <feFlood flood-color="#ff0000" flood-opacity="0.5" result="PINK"></feFlood>        <feComposite in="PINK" in2="DILATED" operator="in" result="OUTLINE"></feComposite>        <feMerge>            <feMergeNode in="OUTLINE"></feMergeNode>            <feMergeNode in="SourceGraphic"></feMergeNode>        </feMerge>            <feColorMatrix type="matrix" values="0   0   0   0   0                0   1   0   0   0                0   0   0   0   0                0   0   0   1   0 "></feColorMatrix>    </filter></defs></svg>